<svg xmlns="http://www.w3.org/2000/svg" width="1842.881" height="707.655" viewBox="0 0 1842.881 707.655">
  <defs>
    <style>
      .cls-1 {
        fill: #fff;
      }
    </style>
  </defs>
  <g id="Group_20" data-name="Group 20" transform="translate(-19.074 -13318.26)">
    <path id="Path_395" data-name="Path 395" class="cls-1" d="M25.646,19.871a7.776,7.776,0,0,0-7.588-7.951,7.776,7.776,0,0,0-7.588,7.951,7.776,7.776,0,0,0,7.588,7.951A7.776,7.776,0,0,0,25.646,19.871Z" transform="translate(17.14 13995.109)"/>
    <ellipse id="Ellipse_133" data-name="Ellipse 133" class="cls-1" cx="5.691" cy="5.963" rx="5.691" ry="5.963" transform="translate(29.507 13964.292)"/>
    <path id="Path_396" data-name="Path 396" class="cls-1" d="M21.872,17.947a6.866,6.866,0,0,0-5.691-6.957s-5.691,0-5.691,6.957a5.832,5.832,0,0,0,5.691,5.963,5.832,5.832,0,0,0,5.691-5.963Z" transform="translate(19.017 13903.607)"/>
    <path id="Path_397" data-name="Path 397" class="cls-1" d="M23.759,17.447a6.8,6.8,0,0,0-6.639-6.957,6.8,6.8,0,0,0-6.639,6.957A6.8,6.8,0,0,0,17.119,24.4,6.8,6.8,0,0,0,23.759,17.447Z" transform="translate(18.079 13854.413)"/>
    <path id="Path_398" data-name="Path 398" class="cls-1" d="M25.646,17.941A7.776,7.776,0,0,0,18.058,9.99a7.776,7.776,0,0,0-7.588,7.951,7.776,7.776,0,0,0,7.588,7.951,8.749,8.749,0,0,0,7.588-7.951Z" transform="translate(17.14 13805.218)"/>
    <path id="Path_399" data-name="Path 399" class="cls-1" d="M27.533,18.435A8.748,8.748,0,0,0,19,9.49a8.748,8.748,0,0,0-8.536,8.945A8.748,8.748,0,0,0,19,27.38,8.748,8.748,0,0,0,27.533,18.435Z" transform="translate(16.202 13756.022)"/>
    <path id="Path_400" data-name="Path 400" class="cls-1" d="M29.419,18.929A9.72,9.72,0,0,0,19.935,8.99a9.72,9.72,0,0,0-9.485,9.939,9.72,9.72,0,0,0,9.485,9.939,9.72,9.72,0,0,0,9.485-9.939Z" transform="translate(15.263 13706.828)"/>
    <path id="Path_401" data-name="Path 401" class="cls-1" d="M30.358,18.491a9.206,9.206,0,0,0-2.44-7.382,8.306,8.306,0,0,0-7.044-2.557,9.213,9.213,0,0,0-7.329,2.535,10.162,10.162,0,0,0-3.1,7.4A10.692,10.692,0,0,0,20.873,29.424a9.293,9.293,0,0,0,7.066-3.253,10.246,10.246,0,0,0,2.419-7.68Z" transform="translate(14.325 13657.571)"/>
    <path id="Path_402" data-name="Path 402" class="cls-1" d="M31.306,18.923A10.692,10.692,0,0,0,20.873,7.99,10.692,10.692,0,0,0,10.44,18.923,10.692,10.692,0,0,0,20.873,29.856,10.692,10.692,0,0,0,31.306,18.923Z" transform="translate(14.325 13608.438)"/>
    <ellipse id="Ellipse_134" data-name="Ellipse 134" class="cls-1" cx="12.33" cy="12.921" rx="12.33" ry="12.921" transform="translate(22.868 13565.739)"/>
    <path id="Path_403" data-name="Path 403" class="cls-1" d="M38.885,17.943A14.32,14.32,0,0,0,24.658,7.01c-7.857,0-14.227,6.675-14.227,14.909a15.342,15.342,0,0,0,3.816,11.19,13.929,13.929,0,0,0,10.411,4.712,14.975,14.975,0,0,0,11.676-6.354,16.512,16.512,0,0,0,2.551-13.524Z" transform="translate(10.54 13511.022)"/>
    <path id="Path_404" data-name="Path 404" class="cls-1" d="M42.628,23.346c0-9.332-7.219-16.9-16.124-16.9S10.38,14.015,10.38,23.346s7.219,16.9,16.124,16.9S42.628,32.678,42.628,23.346Z" transform="translate(8.694 13456.918)"/>
    <ellipse id="Ellipse_135" data-name="Ellipse 135" class="cls-1" cx="16.124" cy="16.896" rx="16.124" ry="16.896" transform="translate(19.074 13414.667)"/>
    <path id="Path_405" data-name="Path 405" class="cls-1" d="M40.741,21.382c0-8.783-6.794-15.9-15.176-15.9S10.39,12.6,10.39,21.382s6.794,15.9,15.176,15.9S40.741,30.165,40.741,21.382Z" transform="translate(9.633 13361.48)"/>
    <path id="Path_406" data-name="Path 406" class="cls-1" d="M38.854,19.9c0-8.234-6.37-14.908-14.227-14.908S10.4,11.665,10.4,19.9s6.37,14.908,14.227,14.908S38.854,28.132,38.854,19.9Z" transform="translate(10.571 13313.27)"/>
    <ellipse id="Ellipse_138" data-name="Ellipse 138" class="cls-1" cx="6.639" cy="6.957" rx="6.639" ry="6.957" transform="translate(75.034 14012)"/>
    <ellipse id="Ellipse_139" data-name="Ellipse 139" class="cls-1" cx="4.742" cy="4.969" rx="4.742" ry="4.969" transform="translate(76.931 13965.286)"/>
    <path id="Path_415" data-name="Path 415" class="cls-1" d="M18.129,20.24a5.071,5.071,0,0,0,2.21-5.59,4.69,4.69,0,0,0-9.162,0,5.071,5.071,0,0,0,2.21,5.59Z" transform="translate(68.287 13901.314)"/>
    <ellipse id="Ellipse_140" data-name="Ellipse 140" class="cls-1" cx="5.691" cy="5.963" rx="5.691" ry="5.963" transform="translate(75.982 13865.896)"/>
    <path id="Path_416" data-name="Path 416" class="cls-1" d="M28,18.285a7.1,7.1,0,0,0-2.95-7.21,6.391,6.391,0,0,0-7.483.253,6.8,6.8,0,0,0-6.639,6.957,6.8,6.8,0,0,0,6.639,6.957,6.391,6.391,0,0,0,7.483.253A7.1,7.1,0,0,0,28,18.284Z" transform="translate(60.31 13804.874)"/>
    <path id="Path_417" data-name="Path 417" class="cls-1" d="M29.889,18.551a8.107,8.107,0,0,0-3.3-7.727,7.3,7.3,0,0,0-8.077-.224,7.776,7.776,0,0,0-7.588,7.951A7.776,7.776,0,0,0,18.508,26.5a7.3,7.3,0,0,0,8.077-.225A8.107,8.107,0,0,0,29.889,18.551Z" transform="translate(59.372 13755.907)"/>
    <ellipse id="Ellipse_141" data-name="Ellipse 141" class="cls-1" cx="8.536" cy="8.945" rx="8.536" ry="8.945" transform="translate(73.137 13716.812)"/>
    <path id="Path_418" data-name="Path 418" class="cls-1" d="M32.777,19.036A9.126,9.126,0,0,0,29,9.9a8.214,8.214,0,0,0-9.5.186,8.748,8.748,0,0,0-8.536,8.945A9.226,9.226,0,0,0,13.1,26.014a8.365,8.365,0,0,0,6.4,2.961,8.225,8.225,0,0,0,10.142.17A9.187,9.187,0,0,0,32.777,19.036Z" transform="translate(58.381 13657.026)"/>
    <ellipse id="Ellipse_142" data-name="Ellipse 142" class="cls-1" cx="9.485" cy="9.939" rx="9.485" ry="9.939" transform="translate(72.188 13617.422)"/>
    <path id="Path_419" data-name="Path 419" class="cls-1" d="M37.437,20.1A12.157,12.157,0,0,0,32.9,9.869a10.958,10.958,0,0,0-10.642-1.7A11.664,11.664,0,0,0,10.88,20.1,11.606,11.606,0,0,0,22.262,31.032a10.031,10.031,0,0,0,10.719-.693A11.144,11.144,0,0,0,37.437,20.1Z" transform="translate(55.618 13558.562)"/>
    <ellipse id="Ellipse_143" data-name="Ellipse 143" class="cls-1" cx="14.227" cy="14.908" rx="14.227" ry="14.908" transform="translate(67.446 13514.057)"/>
    <ellipse id="Ellipse_144" data-name="Ellipse 144" class="cls-1" cx="16.124" cy="16.896" rx="16.124" ry="16.896" transform="translate(65.549 13463.368)"/>
    <path id="Path_420" data-name="Path 420" class="cls-1" d="M43.113,22.386C42.878,13.638,36.307,6.526,27.971,6s-15.678,5.7-16.92,14.353S15.079,37.219,23.2,39.282A16.507,16.507,0,0,0,36.8,35.55,18.2,18.2,0,0,0,43.113,22.386Z" transform="translate(54.684 13409.178)"/>
    <ellipse id="Ellipse_145" data-name="Ellipse 145" class="cls-1" cx="15.176" cy="15.902" rx="15.176" ry="15.902" transform="translate(66.498 13366.96)"/>
    <path id="Path_421" data-name="Path 421" class="cls-1" d="M37.457,18.915C37.457,11.23,31.512,5,24.179,5S10.9,11.23,10.9,18.915s5.945,13.915,13.279,13.915S37.457,26.6,37.457,18.915Z" transform="translate(57.495 13314.253)"/>
    <path id="Path_427" data-name="Path 427" class="cls-1" d="M22.035,17.9a5.9,5.9,0,0,0-4.742-5.963A5.832,5.832,0,0,0,11.6,17.9a5.13,5.13,0,0,0,1.267,4.636,4.6,4.6,0,0,0,4.424,1.327S22.035,25.855,22.035,17.9Z" transform="translate(111.805 13997.078)"/>
    <path id="Path_428" data-name="Path 428" class="cls-1" d="M11.57,11.55h0v0Z" transform="translate(120.372 13958.706)"/>
    <ellipse id="Ellipse_151" data-name="Ellipse 151" class="cls-1" cx="3.794" cy="3.976" rx="3.794" ry="3.976" transform="translate(125.303 13917.579)"/>
    <path id="Path_429" data-name="Path 429" class="cls-1" d="M21.913,14.1a5.591,5.591,0,0,0-10.433,0,5.466,5.466,0,0,0,5.691,0,4.555,4.555,0,0,0,4.742,0Z" transform="translate(111.926 13857.756)"/>
    <path id="Path_430" data-name="Path 430" class="cls-1" d="M21.913,14.99l-4.742-4.97s-5.691,0-5.691,4.97a5.832,5.832,0,0,0,5.691,5.963,5.9,5.9,0,0,0,4.742-5.963Z" transform="translate(111.926 13808.17)"/>
    <path id="Path_431" data-name="Path 431" class="cls-1" d="M23.8,16.467A6.866,6.866,0,0,0,18.109,9.51a6.8,6.8,0,0,0-6.639,6.957,6.8,6.8,0,0,0,6.639,6.957A6.865,6.865,0,0,0,23.8,16.467Z" transform="translate(110.988 13757.99)"/>
    <path id="Path_432" data-name="Path 432" class="cls-1" d="M25.767,18.028a7.223,7.223,0,0,0-1.12-6.265,6.523,6.523,0,0,0-5.519-2.68A6.452,6.452,0,0,0,13.4,11.037a7.168,7.168,0,0,0-1.865,6,7.107,7.107,0,0,0,2.267,5.307,6.435,6.435,0,0,0,5.321,1.65A6.744,6.744,0,0,0,25.767,18.028Z" transform="translate(109.97 13707.729)"/>
    <path id="Path_433" data-name="Path 433" class="cls-1" d="M27.574,16.523a7.776,7.776,0,0,0-7.588-7.951A7.36,7.36,0,0,0,14,10.518a8.126,8.126,0,0,0-2.546,6.005,8.748,8.748,0,0,0,8.536,8.945,8.808,8.808,0,0,0,7.588-8.945Z" transform="translate(109.11 13659.539)"/>
    <path id="Path_434" data-name="Path 434" class="cls-1" d="M28.522,17.939a9.226,9.226,0,0,0-2.139-6.978A8.365,8.365,0,0,0,19.986,8a8.748,8.748,0,0,0-8.536,8.945,8.748,8.748,0,0,0,8.536,8.945A8.689,8.689,0,0,0,28.522,17.939Z" transform="translate(109.111 13609.422)"/>
    <path id="Path_435" data-name="Path 435" class="cls-1" d="M31.348,18.433a10.245,10.245,0,0,0-2.419-7.68A9.293,9.293,0,0,0,21.863,7.5,10.692,10.692,0,0,0,11.43,18.433,10.692,10.692,0,0,0,21.863,29.366a9.293,9.293,0,0,0,7.066-3.253A10.246,10.246,0,0,0,31.348,18.433Z" transform="translate(107.234 13560.228)"/>
    <path id="Path_436" data-name="Path 436" class="cls-1" d="M39.805,17.964A14.372,14.372,0,0,0,26.526,7.031a14.161,14.161,0,0,0-13.88,8.73,15.439,15.439,0,0,0,2.9,16.689,13.751,13.751,0,0,0,15.926,3.04,15.01,15.01,0,0,0,8.331-14.545Z" transform="translate(102.57 13511.002)"/>
    <path id="Path_437" data-name="Path 437" class="cls-1" d="M42.669,23.346c.015-8.957-6.643-16.369-15.176-16.9-8.905,0-16.124,7.565-16.124,16.9s7.219,16.9,16.124,16.9C36.027,39.716,42.684,32.3,42.669,23.346Z" transform="translate(101.603 13456.918)"/>
    <path id="Path_438" data-name="Path 438" class="cls-1" d="M42.67,18.921A16.322,16.322,0,0,0,27.494,6C18.589,6,11.37,13.565,11.37,22.9a16.272,16.272,0,0,0,4.775,11.611A14.772,14.772,0,0,0,27.494,38.8a14.9,14.9,0,0,0,12.334-5.96A16.5,16.5,0,0,0,42.67,18.921Z" transform="translate(101.603 13412.643)"/>
    <path id="Path_439" data-name="Path 439" class="cls-1" d="M40.783,21.382c.016-8.409-6.218-15.377-14.227-15.9-8.381,0-15.176,7.12-15.176,15.9.5,8.392,7.151,14.925,15.176,14.908,7.858,0,14.227-6.675,14.227-14.908Z" transform="translate(102.541 13361.48)"/>
    <path id="Path_440" data-name="Path 440" class="cls-1" d="M37.009,18.953a13.3,13.3,0,0,0-3.258-9.786,12.074,12.074,0,0,0-9.072-4.129A11.993,11.993,0,0,0,15.34,8.452a13.217,13.217,0,0,0-3.94,9.506c0,7.685,5.945,13.915,13.278,13.915C31.488,31.873,37.009,26.088,37.009,18.953Z" transform="translate(104.418 13314.215)"/>
    <path id="Path_451" data-name="Path 451" class="cls-1" d="M12.07,12v0Z" transform="translate(167.296 14002.981)"/>
    <path id="Path_452" data-name="Path 452" class="cls-1" d="M12.06,11.55Z" transform="translate(166.358 13958.706)"/>
    <path id="Path_453" data-name="Path 453" class="cls-1" d="M12.06,11.06Z" transform="translate(166.358 13910.495)"/>
    <path id="Path_454" data-name="Path 454" class="cls-1" d="M12.07,10.56Z" transform="translate(167.296 13861.3)"/>
    <path id="Path_455" data-name="Path 455" class="cls-1" d="M12.07,10.07Z" transform="translate(167.296 13813.089)"/>
    <path id="Path_456" data-name="Path 456" class="cls-1" d="M25.219,15.824a6.079,6.079,0,0,0-2.267-5.115,5.479,5.479,0,0,0-5.321-.848,5.832,5.832,0,0,0-5.691,5.963,5.771,5.771,0,0,0,5.691,4.97Z" transform="translate(155.096 13758.634)"/>
    <ellipse id="Ellipse_152" data-name="Ellipse 152" class="cls-1" cx="6.639" cy="6.957" rx="6.639" ry="6.957" transform="translate(168.933 13718.8)"/>
    <path id="Path_457" data-name="Path 457" class="cls-1" d="M30.02,16.69a9.052,9.052,0,0,0-3.484-6.471,8.227,8.227,0,0,0-6.949-1.48A7.776,7.776,0,0,0,12,16.69a7.168,7.168,0,0,0,1.865,6,6.452,6.452,0,0,0,5.723,1.954,7.3,7.3,0,0,0,7.329-.932A8.1,8.1,0,0,0,30.02,16.69Z" transform="translate(153.14 13659.372)"/>
    <path id="Path_458" data-name="Path 458" class="cls-1" d="M29.941,18.737a8.213,8.213,0,0,0-2-8.677A7.321,7.321,0,0,0,19.508,8.8a7.776,7.776,0,0,0-7.588,7.951A7.776,7.776,0,0,0,19.508,24.7a7.279,7.279,0,0,0,6.591-.342A7.943,7.943,0,0,0,29.941,18.737Z" transform="translate(153.219 13608.624)"/>
    <path id="Path_459" data-name="Path 459" class="cls-1" d="M30.959,17.511a9.72,9.72,0,0,0-9.485-9.939,8.306,8.306,0,0,0-7.044,2.557,9.205,9.205,0,0,0-2.44,7.382,9.72,9.72,0,0,0,9.485,9.939,10.693,10.693,0,0,0,9.485-9.939Z" transform="translate(154.098 13561.149)"/>
    <path id="Path_460" data-name="Path 460" class="cls-1" d="M41.263,18.309a13.955,13.955,0,0,0-5.831-9.08A12.772,12.772,0,0,0,25.139,7.376,11.992,11.992,0,0,0,15.8,10.79,13.217,13.217,0,0,0,11.86,20.3c0,7.685,5.945,13.915,13.279,13.915A12.861,12.861,0,0,0,37.277,30.8a14.322,14.322,0,0,0,3.986-12.489Z" transform="translate(147.588 13510.657)"/>
    <path id="Path_461" data-name="Path 461" class="cls-1" d="M45.975,22.642a16.234,16.234,0,0,0-5.4-12.446A14.678,14.678,0,0,0,27.954,6.74c-8.547-.016-15.621,6.961-16.124,15.9.471,9.119,7.422,16.4,16.124,16.9A15.647,15.647,0,0,0,40.6,35.351,17.27,17.27,0,0,0,45.975,22.642Z" transform="translate(144.773 13457.622)"/>
    <ellipse id="Ellipse_153" data-name="Ellipse 153" class="cls-1" cx="15.176" cy="15.902" rx="15.176" ry="15.902" transform="translate(160.396 13415.661)"/>
    <path id="Path_462" data-name="Path 462" class="cls-1" d="M38.447,19.415C38.447,11.73,32.5,5.5,25.169,5.5S11.89,11.73,11.89,19.415s5.945,13.915,13.279,13.915S38.447,27.1,38.447,19.415Z" transform="translate(150.403 13363.448)"/>
    <path id="Path_463" data-name="Path 463" class="cls-1" d="M36.56,17.931c0-7.136-5.52-12.921-12.33-12.921S11.9,10.795,11.9,17.931s5.52,12.921,12.33,12.921S36.56,25.067,36.56,17.931Z" transform="translate(151.342 13315.237)"/>
    <ellipse id="Ellipse_156" data-name="Ellipse 156" class="cls-1" cx="3.794" cy="3.976" rx="3.794" ry="3.976" transform="translate(218.253 14014.981)"/>
    <ellipse id="Ellipse_157" data-name="Ellipse 157" class="cls-1" cx="0.948" cy="0.994" rx="0.948" ry="0.994" transform="translate(221.099 13969.262)"/>
    <ellipse id="Ellipse_158" data-name="Ellipse 158" class="cls-1" cx="1.897" cy="1.988" rx="1.897" ry="1.988" transform="translate(220.15 13919.566)"/>
    <path id="Path_472" data-name="Path 472" class="cls-1" d="M12.55,10.56Z" transform="translate(212.343 13861.3)"/>
    <path id="Path_473" data-name="Path 473" class="cls-1" d="M18.181,10.07h0Z" transform="translate(206.712 13813.089)"/>
    <path id="Path_474" data-name="Path 474" class="cls-1" d="M20.068,9.58h0Z" transform="translate(205.773 13764.878)"/>
    <path id="Path_475" data-name="Path 475" class="cls-1" d="M23.842,14.993A5.832,5.832,0,0,0,18.151,9.03a5.832,5.832,0,0,0-5.691,5.963,5.832,5.832,0,0,0,5.691,5.964,5.832,5.832,0,0,0,5.691-5.963Z" transform="translate(203.896 13710.764)"/>
    <path id="Path_476" data-name="Path 476" class="cls-1" d="M23.842,14.493A5.832,5.832,0,0,0,18.151,8.53a5.832,5.832,0,0,0-5.691,5.963,6.866,6.866,0,0,0,5.691,6.957S23.842,18.469,23.842,14.493Z" transform="translate(203.896 13661.569)"/>
    <ellipse id="Ellipse_159" data-name="Ellipse 159" class="cls-1" cx="6.639" cy="6.957" rx="6.639" ry="6.957" transform="translate(215.408 13620.404)"/>
    <ellipse id="Ellipse_160" data-name="Ellipse 160" class="cls-1" cx="8.536" cy="8.945" rx="8.536" ry="8.945" transform="translate(213.511 13569.715)"/>
    <path id="Path_477" data-name="Path 477" class="cls-1" d="M37.05,19.9c0-7.136-5.52-12.921-12.33-12.921S12.39,12.765,12.39,19.9s5.52,12.921,12.33,12.921S37.05,27.037,37.05,19.9Z" transform="translate(197.327 13509.064)"/>
    <path id="Path_478" data-name="Path 478" class="cls-1" d="M43.66,22.362c-.5-8.941-7.577-15.918-16.124-15.9-8.381,0-15.176,7.12-15.176,15.9-.015,8.957,6.643,16.369,15.176,16.9,8.7-.494,15.653-7.777,16.124-16.9Z" transform="translate(194.512 13457.902)"/>
    <ellipse id="Ellipse_161" data-name="Ellipse 161" class="cls-1" cx="15.176" cy="15.902" rx="15.176" ry="15.902" transform="translate(206.872 13415.661)"/>
    <path id="Path_479" data-name="Path 479" class="cls-1" d="M38.035,19.415C38.035,11.73,32.09,5.5,24.756,5.5a12.074,12.074,0,0,0-9.072,4.129,13.3,13.3,0,0,0-3.258,9.786c0,7.136,5.52,12.921,12.33,12.921a11.992,11.992,0,0,0,9.339-3.414,13.217,13.217,0,0,0,3.94-9.507Z" transform="translate(197.291 13363.448)"/>
    <ellipse id="Ellipse_162" data-name="Ellipse 162" class="cls-1" cx="11.382" cy="11.927" rx="11.382" ry="11.927" transform="translate(210.666 13321.241)"/>
    <path id="Path_486" data-name="Path 486" class="cls-1" d="M13,12Z" transform="translate(254.574 14002.981)"/>
    <path id="Path_487" data-name="Path 487" class="cls-1" d="M13.959,11.55h0Z" transform="translate(255.512 13958.706)"/>
    <ellipse id="Ellipse_167" data-name="Ellipse 167" class="cls-1" transform="translate(268.522 13921.555)"/>
    <path id="Path_488" data-name="Path 488" class="cls-1" d="M13,10.56Z" transform="translate(254.574 13861.3)"/>
    <path id="Path_489" data-name="Path 489" class="cls-1" d="M13,10.07Z" transform="translate(254.574 13813.089)"/>
    <ellipse id="Ellipse_168" data-name="Ellipse 168" class="cls-1" cx="3.794" cy="3.976" rx="3.794" ry="3.976" transform="translate(264.728 13770.482)"/>
    <ellipse id="Ellipse_169" data-name="Ellipse 169" class="cls-1" cx="4.742" cy="4.969" rx="4.742" ry="4.969" transform="translate(263.78 13720.787)"/>
    <ellipse id="Ellipse_170" data-name="Ellipse 170" class="cls-1" cx="4.742" cy="4.969" rx="4.742" ry="4.969" transform="translate(263.78 13671.093)"/>
    <ellipse id="Ellipse_171" data-name="Ellipse 171" class="cls-1" cx="5.691" cy="5.963" rx="5.691" ry="5.963" transform="translate(262.832 13621.397)"/>
    <ellipse id="Ellipse_172" data-name="Ellipse 172" class="cls-1" cx="7.588" cy="7.951" rx="7.588" ry="7.951" transform="translate(260.935 13570.709)"/>
    <path id="Path_490" data-name="Path 490" class="cls-1" d="M37.579,18.1a12.1,12.1,0,0,0-4.323-8.556A11,11,0,0,0,24.3,7.17,11.664,11.664,0,0,0,12.919,19.1,12.284,12.284,0,0,0,15.9,28.18a11.148,11.148,0,0,0,8.4,3.837,12.013,12.013,0,0,0,9.707-3.743A13.28,13.28,0,0,0,37.579,18.1Z" transform="translate(243.273 13510.862)"/>
    <path id="Path_491" data-name="Path 491" class="cls-1" d="M44.14,22.393a16.273,16.273,0,0,0-4.775-11.611A14.772,14.772,0,0,0,28.016,6.491c-8.381,0-15.176,7.12-15.176,15.9s6.794,15.9,15.176,15.9A14.772,14.772,0,0,0,39.365,34,16.273,16.273,0,0,0,44.14,22.393Z" transform="translate(239.558 13457.871)"/>
    <path id="Path_492" data-name="Path 492" class="cls-1" d="M44.14,18.971A15.317,15.317,0,0,0,28.016,6.051c-8.381,0-15.176,7.12-15.176,15.9s6.794,15.9,15.176,15.9a14.829,14.829,0,0,0,12.537-5.247A16.439,16.439,0,0,0,44.14,18.971Z" transform="translate(239.558 13412.592)"/>
    <ellipse id="Ellipse_173" data-name="Ellipse 173" class="cls-1" cx="12.33" cy="12.921" rx="12.33" ry="12.921" transform="translate(256.192 13369.941)"/>
    <path id="Path_493" data-name="Path 493" class="cls-1" d="M35.7,19.2A11.319,11.319,0,0,0,33.385,8.491a10.136,10.136,0,0,0-10.02-3.207A10.692,10.692,0,0,0,12.933,16.217a11.265,11.265,0,0,0,2.7,8.382,10.22,10.22,0,0,0,7.734,3.545A11.426,11.426,0,0,0,35.7,19.2Z" transform="translate(244.208 13313.969)"/>
    <path id="Path_499" data-name="Path 499" class="cls-1" d="M13.52,12Z" transform="translate(303.375 14002.981)"/>
    <path id="Path_500" data-name="Path 500" class="cls-1" d="M14.449,10.56H13.5l.949.994Z" transform="translate(301.497 13861.3)"/>
    <path id="Path_501" data-name="Path 501" class="cls-1" d="M13.52,10.07Z" transform="translate(303.375 13813.089)"/>
    <ellipse id="Ellipse_179" data-name="Ellipse 179" class="cls-1" cx="1.897" cy="1.988" rx="1.897" ry="1.988" transform="translate(314.049 13772.471)"/>
    <path id="Path_502" data-name="Path 502" class="cls-1" d="M13.54,9.09Z" transform="translate(305.251 13716.667)"/>
    <path id="Path_503" data-name="Path 503" class="cls-1" d="M13.55,8.59v0Z" transform="translate(306.19 13667.473)"/>
    <path id="Path_504" data-name="Path 504" class="cls-1" d="M18.252,8.759a4.555,4.555,0,0,0-4.742,0V18.7a5.192,5.192,0,0,0,7.113-2.485,5.683,5.683,0,0,0-2.371-7.454Z" transform="translate(302.436 13618.603)"/>
    <path id="Path_505" data-name="Path 505" class="cls-1" d="M27.657,15.481A7.837,7.837,0,0,0,21.018,7.53a8.749,8.749,0,0,0-7.588,7.951,7.716,7.716,0,0,0,7.588,6.957A6.8,6.8,0,0,0,27.657,15.481Z" transform="translate(294.928 13563.179)"/>
    <path id="Path_506" data-name="Path 506" class="cls-1" d="M36.153,17.933A12.572,12.572,0,0,0,24.772,7,11.664,11.664,0,0,0,13.39,18.927,11.664,11.664,0,0,0,24.772,30.853a11.147,11.147,0,0,0,8.4-3.837A12.284,12.284,0,0,0,36.153,17.933Z" transform="translate(291.174 13511.032)"/>
    <ellipse id="Ellipse_180" data-name="Ellipse 180" class="cls-1" cx="15.176" cy="15.902" rx="15.176" ry="15.902" transform="translate(300.77 13464.362)"/>
    <path id="Path_507" data-name="Path 507" class="cls-1" d="M42.753,18.954A14.46,14.46,0,0,0,28.526,6.033a13.845,13.845,0,0,0-10.679,4,15.254,15.254,0,0,0-4.5,10.909c.5,8.392,7.151,14.925,15.176,14.908a13.949,13.949,0,0,0,10.8-5.044A15.393,15.393,0,0,0,42.753,18.954Z" transform="translate(287.421 13412.61)"/>
    <ellipse id="Ellipse_181" data-name="Ellipse 181" class="cls-1" cx="12.33" cy="12.921" rx="12.33" ry="12.921" transform="translate(303.616 13369.941)"/>
    <ellipse id="Ellipse_182" data-name="Ellipse 182" class="cls-1" cx="10.433" cy="10.933" rx="10.433" ry="10.933" transform="translate(305.513 13322.234)"/>
    <path id="Path_513" data-name="Path 513" class="cls-1" d="M15.887,12.04h-1.9l.949.994Z" transform="translate(347.483 14006.917)"/>
    <path id="Path_514" data-name="Path 514" class="cls-1" d="M14,10.07Z" transform="translate(348.421 13813.089)"/>
    <path id="Path_515" data-name="Path 515" class="cls-1" d="M14,9.58Z" transform="translate(348.421 13764.878)"/>
    <ellipse id="Ellipse_188" data-name="Ellipse 188" class="cls-1" cx="1.897" cy="1.988" rx="1.897" ry="1.988" transform="translate(360.524 13723.77)"/>
    <path id="Path_516" data-name="Path 516" class="cls-1" d="M19.631,8.59h0Z" transform="translate(342.79 13667.473)"/>
    <path id="Path_517" data-name="Path 517" class="cls-1" d="M21.508,8.1h0Z" transform="translate(340.913 13619.262)"/>
    <path id="Path_518" data-name="Path 518" class="cls-1" d="M25.322,14.5A6.865,6.865,0,0,0,19.631,7.54s-5.691,0-5.691,6.957a5.832,5.832,0,0,0,5.691,5.963A5.832,5.832,0,0,0,25.322,14.5Z" transform="translate(342.79 13564.163)"/>
    <path id="Path_519" data-name="Path 519" class="cls-1" d="M34.756,17.933A10.692,10.692,0,0,0,24.323,7,10.692,10.692,0,0,0,13.89,17.933,10.692,10.692,0,0,0,24.323,28.866,10.692,10.692,0,0,0,34.756,17.933Z" transform="translate(338.098 13511.032)"/>
    <path id="Path_520" data-name="Path 520" class="cls-1" d="M42.34,21.378c0-8.234-6.37-14.908-14.227-14.908S13.886,13.145,13.886,21.378A14.3,14.3,0,0,0,17.739,32.25a12.941,12.941,0,0,0,10.375,4.037C35.971,36.287,42.34,29.612,42.34,21.378Z" transform="translate(334.308 13458.886)"/>
    <path id="Path_521" data-name="Path 521" class="cls-1" d="M42.3,20.888c0-8.234-6.37-14.908-14.227-14.908S13.85,12.655,13.85,20.888,20.22,35.8,28.077,35.8,42.3,29.122,42.3,20.888Z" transform="translate(334.344 13410.675)"/>
    <path id="Path_522" data-name="Path 522" class="cls-1" d="M36.643,17.447A11.664,11.664,0,0,0,25.262,5.52,11.664,11.664,0,0,0,13.88,17.447,11.664,11.664,0,0,0,25.262,29.374,11.664,11.664,0,0,0,36.643,17.447Z" transform="translate(337.159 13365.416)"/>
    <ellipse id="Ellipse_189" data-name="Ellipse 189" class="cls-1" cx="10.433" cy="10.933" rx="10.433" ry="10.933" transform="translate(351.988 13322.234)"/>
    <path id="Path_531" data-name="Path 531" class="cls-1" d="M14.49,12.04Z" transform="translate(394.406 14006.917)"/>
    <ellipse id="Ellipse_192" data-name="Ellipse 192" class="cls-1" transform="translate(408.896 13774.458)"/>
    <path id="Path_532" data-name="Path 532" class="cls-1" d="M14.5,9.09Z" transform="translate(395.345 13716.667)"/>
    <ellipse id="Ellipse_193" data-name="Ellipse 193" class="cls-1" cx="1.897" cy="1.988" rx="1.897" ry="1.988" transform="translate(406.999 13674.074)"/>
    <ellipse id="Ellipse_194" data-name="Ellipse 194" class="cls-1" cx="2.845" cy="2.982" rx="2.845" ry="2.982" transform="translate(406.051 13624.38)"/>
    <ellipse id="Ellipse_195" data-name="Ellipse 195" class="cls-1" cx="4.742" cy="4.969" rx="4.742" ry="4.969" transform="translate(404.154 13573.69)"/>
    <path id="Path_533" data-name="Path 533" class="cls-1" d="M34.355,16.949A10.634,10.634,0,0,0,23.922,7.01a9.72,9.72,0,0,0-9.485,9.939,10.245,10.245,0,0,0,2.419,7.68,9.293,9.293,0,0,0,7.066,3.253A10.692,10.692,0,0,0,34.355,16.949Z" transform="translate(384.974 13512.017)"/>
    <path id="Path_534" data-name="Path 534" class="cls-1" d="M42.794,21.378c0-8.234-6.37-14.908-14.227-14.908S14.34,13.145,14.34,21.378s6.37,14.908,14.227,14.909S42.794,29.612,42.794,21.378Z" transform="translate(380.329 13458.886)"/>
    <ellipse id="Ellipse_196" data-name="Ellipse 196" class="cls-1" cx="14.227" cy="14.908" rx="14.227" ry="14.908" transform="translate(394.669 13416.655)"/>
    <path id="Path_535" data-name="Path 535" class="cls-1" d="M37.133,17.447A11.664,11.664,0,0,0,25.752,5.52,11.664,11.664,0,0,0,14.37,17.447,12.637,12.637,0,0,0,25.751,29.373,11.664,11.664,0,0,0,37.133,17.447Z" transform="translate(383.145 13365.416)"/>
    <path id="Path_536" data-name="Path 536" class="cls-1" d="M33.359,14.979A9.72,9.72,0,0,0,23.875,5.04a10.693,10.693,0,0,0-9.485,9.939,9.72,9.72,0,0,0,9.485,9.939,8.306,8.306,0,0,0,7.044-2.557,9.2,9.2,0,0,0,2.44-7.382Z" transform="translate(385.021 13318.188)"/>
    <path id="Path_542" data-name="Path 542" class="cls-1" d="M15.928,10.074,14.98,9.08v.994h.948Z" transform="translate(440.391 13715.684)"/>
    <path id="Path_543" data-name="Path 543" class="cls-1" d="M15.928,8.59H14.98v.994Z" transform="translate(440.391 13667.473)"/>
    <path id="Path_544" data-name="Path 544" class="cls-1" d="M15,8.1Z" transform="translate(442.268 13619.262)"/>
    <path id="Path_545" data-name="Path 545" class="cls-1" d="M19.692,12.53V7.56L14.95,12.53Z" transform="translate(437.576 13566.131)"/>
    <path id="Path_546" data-name="Path 546" class="cls-1" d="M32.032,17.988a9.289,9.289,0,0,0-1.412-7.282,8.455,8.455,0,0,0-6.176-3.651A8.287,8.287,0,0,0,17.785,9.3,9.144,9.144,0,0,0,14.959,16,9.205,9.205,0,0,0,17.4,23.382a8.306,8.306,0,0,0,7.044,2.557,8.749,8.749,0,0,0,7.588-7.951Z" transform="translate(432.824 13510.978)"/>
    <path id="Path_547" data-name="Path 547" class="cls-1" d="M42.356,21.378c.017-7.861-5.794-14.384-13.279-14.908-7.857,0-14.227,6.675-14.227,14.908s6.37,14.908,14.227,14.908c7.485-.524,13.3-7.048,13.279-14.908Z" transform="translate(428.191 13458.886)"/>
    <path id="Path_548" data-name="Path 548" class="cls-1" d="M41.407,18.921A14.582,14.582,0,0,0,29.077,6C21.22,6,14.85,12.675,14.85,20.908a14.236,14.236,0,0,0,4.218,10.208,12.919,12.919,0,0,0,10.009,3.707,13.093,13.093,0,0,0,9.5-5.114A14.4,14.4,0,0,0,41.407,18.921Z" transform="translate(428.191 13412.643)"/>
    <path id="Path_549" data-name="Path 549" class="cls-1" d="M35.746,17.447a11.289,11.289,0,0,0-2.371-8.034A10.292,10.292,0,0,0,26.262,5.52,11.664,11.664,0,0,0,14.88,17.447a11.18,11.18,0,0,0,3.383,8.1,10.139,10.139,0,0,0,8,2.828,10.751,10.751,0,0,0,9.485-10.933Z" transform="translate(431.006 13365.416)"/>
    <ellipse id="Ellipse_202" data-name="Ellipse 202" class="cls-1" cx="8.536" cy="8.945" rx="8.536" ry="8.945" transform="translate(447.783 13324.223)"/>
    <path id="Path_555" data-name="Path 555" class="cls-1" d="M16.418,9.084V8.09l-.948.994.948.994Z" transform="translate(486.376 13618.277)"/>
    <ellipse id="Ellipse_208" data-name="Ellipse 208" class="cls-1" cx="2.845" cy="2.982" rx="2.845" ry="2.982" transform="translate(499.949 13575.679)"/>
    <ellipse id="Ellipse_209" data-name="Ellipse 209" class="cls-1" cx="8.536" cy="8.945" rx="8.536" ry="8.945" transform="translate(494.259 13520.021)"/>
    <path id="Path_556" data-name="Path 556" class="cls-1" d="M42.836,21.378c.017-7.861-5.794-14.384-13.279-14.908C21.7,6.47,15.33,13.145,15.33,21.378S21.7,36.287,29.557,36.287c7.485-.524,13.3-7.048,13.279-14.908Z" transform="translate(473.238 13458.886)"/>
    <ellipse id="Ellipse_210" data-name="Ellipse 210" class="cls-1" cx="13.279" cy="13.915" rx="13.279" ry="13.915" transform="translate(489.516 13417.648)"/>
    <path id="Path_557" data-name="Path 557" class="cls-1" d="M36.236,16.463A10.692,10.692,0,0,0,25.8,5.53,10.692,10.692,0,0,0,15.37,16.463,10.692,10.692,0,0,0,25.8,27.4,10.692,10.692,0,0,0,36.236,16.463Z" transform="translate(476.992 13366.399)"/>
    <path id="Path_558" data-name="Path 558" class="cls-1" d="M31.514,13.094a7.168,7.168,0,0,0-1.864-6,6.452,6.452,0,0,0-5.723-1.954,7.361,7.361,0,0,0-5.99,1.946,8.126,8.126,0,0,0-2.546,6.005,8.748,8.748,0,0,0,8.536,8.945,7.438,7.438,0,0,0,5.731-2.668,8.206,8.206,0,0,0,1.857-6.277Z" transform="translate(478.868 13320.073)"/>
    <path id="Path_567" data-name="Path 567" class="cls-1" d="M15.97,8.1Z" transform="translate(533.3 13619.262)"/>
    <ellipse id="Ellipse_213" data-name="Ellipse 213" class="cls-1" cx="1.897" cy="1.988" rx="1.897" ry="1.988" transform="translate(547.373 13576.673)"/>
    <ellipse id="Ellipse_214" data-name="Ellipse 214" class="cls-1" cx="8.536" cy="8.945" rx="8.536" ry="8.945" transform="translate(540.734 13520.021)"/>
    <ellipse id="Ellipse_215" data-name="Ellipse 215" class="cls-1" cx="13.279" cy="13.915" rx="13.279" ry="13.915" transform="translate(535.991 13466.35)"/>
    <path id="Path_568" data-name="Path 568" class="cls-1" d="M42.387,19.9c0-7.685-5.945-13.915-13.279-13.915S15.83,12.22,15.83,19.9s5.945,13.915,13.279,13.915S42.387,27.589,42.387,19.9Z" transform="translate(520.161 13411.659)"/>
    <path id="Path_569" data-name="Path 569" class="cls-1" d="M34.839,15.479A9.72,9.72,0,0,0,25.355,5.54a9.72,9.72,0,0,0-9.485,9.939,9.72,9.72,0,0,0,9.485,9.939A9.72,9.72,0,0,0,34.839,15.479Z" transform="translate(523.915 13367.384)"/>
    <ellipse id="Ellipse_216" data-name="Ellipse 216" class="cls-1" cx="7.588" cy="7.951" rx="7.588" ry="7.951" transform="translate(541.682 13325.217)"/>
    <path id="Path_575" data-name="Path 575" class="cls-1" d="M16.48,7.61Z" transform="translate(581.162 13571.051)"/>
    <path id="Path_576" data-name="Path 576" class="cls-1" d="M31.556,17.955a8.27,8.27,0,0,0-.889-7.68,7.458,7.458,0,0,0-6.7-3.253,8.749,8.749,0,0,0-7.588,7.951,7.776,7.776,0,0,0,7.588,7.951,6.633,6.633,0,0,0,7.588-4.97Z" transform="translate(571.777 13511.011)"/>
    <path id="Path_577" data-name="Path 577" class="cls-1" d="M43.826,20.395C43.326,12.551,37.1,6.463,29.6,6.48c-7.334,0-13.279,6.23-13.279,13.915S22.265,34.309,29.6,34.309C37.1,34.327,43.326,28.238,43.826,20.395Z" transform="translate(566.147 13459.87)"/>
    <path id="Path_578" data-name="Path 578" class="cls-1" d="M41.975,18.921A13.55,13.55,0,0,0,28.7,6a12.074,12.074,0,0,0-9.072,4.129,13.3,13.3,0,0,0-3.258,9.786c0,7.136,5.52,12.92,12.33,12.921A12.014,12.014,0,0,0,38.4,29.093,13.28,13.28,0,0,0,41.975,18.921Z" transform="translate(567.049 13412.643)"/>
    <ellipse id="Ellipse_222" data-name="Ellipse 222" class="cls-1" cx="9.485" cy="9.939" rx="9.485" ry="9.939" transform="translate(586.26 13372.924)"/>
    <path id="Path_579" data-name="Path 579" class="cls-1" d="M29.669,12.027A6.8,6.8,0,0,0,23.029,5.07a6.8,6.8,0,0,0-6.639,6.957,6.8,6.8,0,0,0,6.639,6.957A6.8,6.8,0,0,0,29.669,12.027Z" transform="translate(572.716 13321.141)"/>
    <path id="Path_584" data-name="Path 584" class="cls-1" d="M17.9,8.594V7.6l-.948.994Z" transform="translate(625.27 13570.066)"/>
    <path id="Path_585" data-name="Path 585" class="cls-1" d="M24.587,18a7.166,7.166,0,0,0,0-10.933,6.434,6.434,0,0,0-5.321,1.65A7.108,7.108,0,0,0,17,14.028a7.168,7.168,0,0,0,1.864,6,6.453,6.453,0,0,0,5.723,1.954,7.275,7.275,0,0,0,0-3.976Z" transform="translate(622.375 13510.962)"/>
    <path id="Path_586" data-name="Path 586" class="cls-1" d="M38.675,20.395A12.95,12.95,0,0,0,30.139,6.48C22.8,6.48,16.86,12.71,16.86,20.395S22.8,34.309,30.139,34.309A12.95,12.95,0,0,0,38.675,20.395Z" transform="translate(616.824 13459.87)"/>
    <ellipse id="Ellipse_229" data-name="Ellipse 229" class="cls-1" cx="13.279" cy="13.915" rx="13.279" ry="13.915" transform="translate(629.89 13417.648)"/>
    <ellipse id="Ellipse_230" data-name="Ellipse 230" class="cls-1" cx="8.536" cy="8.945" rx="8.536" ry="8.945" transform="translate(634.633 13373.918)"/>
    <path id="Path_587" data-name="Path 587" class="cls-1" d="M23.569,11.044a6.212,6.212,0,0,0,0-5.963,6.744,6.744,0,0,0-6.639,5.963A6.8,6.8,0,0,0,23.569,18,7.247,7.247,0,0,0,23.569,11.044Z" transform="translate(623.393 13322.124)"/>
    <path id="Path_596" data-name="Path 596" class="cls-1" d="M17.45,8.594v0Z" transform="translate(672.194 13570.066)"/>
    <path id="Path_597" data-name="Path 597" class="cls-1" d="M30.659,14A6.8,6.8,0,0,0,24.019,7.04,6.8,6.8,0,0,0,17.38,14a6.8,6.8,0,0,0,6.639,6.957A6.8,6.8,0,0,0,30.659,14Z" transform="translate(665.625 13514.968)"/>
    <path id="Path_598" data-name="Path 598" class="cls-1" d="M41.98,19.411c0-7.136-5.52-12.921-12.33-12.921S17.32,12.275,17.32,19.411s5.52,12.921,12.33,12.921S41.98,26.547,41.98,19.411Z" transform="translate(659.994 13460.854)"/>
    <path id="Path_599" data-name="Path 599" class="cls-1" d="M41.98,18.921C41.98,11.785,36.46,6,29.65,6S17.32,11.785,17.32,18.921s5.52,12.921,12.33,12.921,12.33-5.785,12.33-12.921Z" transform="translate(659.994 13412.643)"/>
    <path id="Path_600" data-name="Path 600" class="cls-1" d="M34.432,14.5A8.748,8.748,0,0,0,25.9,5.55,8.748,8.748,0,0,0,17.36,14.5,8.748,8.748,0,0,0,25.9,23.44,8.748,8.748,0,0,0,34.433,14.5Z" transform="translate(663.748 13368.367)"/>
    <path id="Path_601" data-name="Path 601" class="cls-1" d="M28.772,11.043A5.832,5.832,0,0,0,23.081,5.08a5.832,5.832,0,0,0-5.691,5.963,5.832,5.832,0,0,0,5.691,5.963,5.832,5.832,0,0,0,5.691-5.963Z" transform="translate(666.563 13322.124)"/>
    <path id="Path_612" data-name="Path 612" class="cls-1" d="M30.2,13.014A6.744,6.744,0,0,0,23.561,7.05a5.832,5.832,0,0,0-5.691,5.963,6.866,6.866,0,0,0,5.69,6.957A6.8,6.8,0,0,0,30.2,13.014Z" transform="translate(711.61 13515.951)"/>
    <path id="Path_613" data-name="Path 613" class="cls-1" d="M42.47,19.411c0-7.136-5.52-12.921-12.33-12.921S17.81,12.275,17.81,19.411s5.52,12.921,12.33,12.921,12.33-5.785,12.33-12.921Z" transform="translate(705.979 13460.854)"/>
    <path id="Path_614" data-name="Path 614" class="cls-1" d="M41.571,18.921C41.571,11.785,36.051,6,29.241,6a11.148,11.148,0,0,0-8.4,3.837,12.285,12.285,0,0,0-2.979,9.084A11.664,11.664,0,0,0,29.241,30.848a11.065,11.065,0,0,0,8.669-3.121,12.2,12.2,0,0,0,3.662-8.805Z" transform="translate(706.878 13412.643)"/>
    <ellipse id="Ellipse_233" data-name="Ellipse 233" class="cls-1" cx="7.588" cy="7.951" rx="7.588" ry="7.951" transform="translate(728.531 13374.911)"/>
    <path id="Path_615" data-name="Path 615" class="cls-1" d="M28.324,5.931a5.467,5.467,0,0,0-5.691,0H17.891a5.9,5.9,0,0,0,4.742,5.963,5.832,5.832,0,0,0,5.691-5.963Z" transform="translate(713.486 13327.237)"/>
    <path id="Path_622" data-name="Path 622" class="cls-1" d="M24.121,12.03V7.061a5.771,5.771,0,0,0-5.691,4.97,5.832,5.832,0,0,0,5.691,5.963,6.212,6.212,0,0,0,0-5.963Z" transform="translate(764.164 13516.936)"/>
    <path id="Path_623" data-name="Path 623" class="cls-1" d="M42.97,19.411c0-7.136-5.52-12.921-12.33-12.921S18.31,12.275,18.31,19.411s5.52,12.921,12.33,12.921S42.97,26.547,42.97,19.411Z" transform="translate(752.902 13460.854)"/>
    <path id="Path_624" data-name="Path 624" class="cls-1" d="M42.022,18.921A12.7,12.7,0,0,0,30.64,6c-6.81,0-12.33,5.785-12.33,12.921a12.2,12.2,0,0,0,3.662,8.805,11.066,11.066,0,0,0,8.669,3.121A11.664,11.664,0,0,0,42.022,18.921Z" transform="translate(752.903 13412.643)"/>
    <path id="Path_625" data-name="Path 625" class="cls-1" d="M32.667,13.594a7.186,7.186,0,0,0-1.574-5.576,6.511,6.511,0,0,0-5.065-2.376A6.453,6.453,0,0,0,20.3,7.6a7.168,7.168,0,0,0-1.865,6A7.108,7.108,0,0,0,20.706,18.9a6.435,6.435,0,0,0,5.321,1.65A6.8,6.8,0,0,0,32.667,13.594Z" transform="translate(757.515 13369.268)"/>
    <path id="Path_626" data-name="Path 626" class="cls-1" d="M23.172,5.8h0a4.555,4.555,0,0,0-4.742,0l4.742,4.97Z" transform="translate(764.164 13327.368)"/>
    <path id="Path_636" data-name="Path 636" class="cls-1" d="M23.692,7.11h0Z" transform="translate(812.965 13521.855)"/>
    <path id="Path_637" data-name="Path 637" class="cls-1" d="M43.46,19.411c0-7.136-5.52-12.921-12.33-12.921S18.8,12.275,18.8,19.411s5.52,12.921,12.33,12.921S43.46,26.547,43.46,19.411Z" transform="translate(798.888 13460.854)"/>
    <ellipse id="Ellipse_239" data-name="Ellipse 239" class="cls-1" cx="11.382" cy="11.927" rx="11.382" ry="11.927" transform="translate(818.636 13419.637)"/>
    <path id="Path_638" data-name="Path 638" class="cls-1" d="M33.077,13.512A7.187,7.187,0,0,0,31.5,7.936,6.511,6.511,0,0,0,26.438,5.56a7.776,7.776,0,0,0-7.588,7.951,7.716,7.716,0,0,0,7.588,6.957,6.8,6.8,0,0,0,6.639-6.957Z" transform="translate(803.58 13369.351)"/>
    <path id="Path_639" data-name="Path 639" class="cls-1" d="M26.508,5.14h0Z" transform="translate(810.149 13328.027)"/>
    <path id="Path_649" data-name="Path 649" class="cls-1" d="M26.968,7.11h0Z" transform="translate(853.319 13521.855)"/>
    <path id="Path_650" data-name="Path 650" class="cls-1" d="M43.051,18.468a12.2,12.2,0,0,0-3.662-8.805,11.066,11.066,0,0,0-8.668-3.122A11.664,11.664,0,0,0,19.339,18.468a12.284,12.284,0,0,0,2.979,9.084,11.148,11.148,0,0,0,8.4,3.837c6.809,0,12.33-5.785,12.33-12.921Z" transform="translate(845.772 13461.797)"/>
    <ellipse id="Ellipse_241" data-name="Ellipse 241" class="cls-1" cx="11.382" cy="11.927" rx="11.382" ry="11.927" transform="translate(865.111 13419.637)"/>
    <path id="Path_651" data-name="Path 651" class="cls-1" d="M32.628,12.527A6.8,6.8,0,0,0,25.989,5.57a6.8,6.8,0,0,0-6.639,6.957,6.8,6.8,0,0,0,6.639,6.957,6.8,6.8,0,0,0,6.639-6.957Z" transform="translate(850.504 13370.335)"/>
    <path id="Path_652" data-name="Path 652" class="cls-1" d="M25.081,5.14h0Z" transform="translate(854.258 13328.027)"/>
    <path id="Path_657" data-name="Path 657" class="cls-1" d="M20,7.11Z" transform="translate(911.504 13521.855)"/>
    <path id="Path_658" data-name="Path 658" class="cls-1" d="M43.462,18.468A12.2,12.2,0,0,0,39.8,9.663a11.066,11.066,0,0,0-8.669-3.121A11.664,11.664,0,0,0,19.75,18.468,11.664,11.664,0,0,0,31.132,30.395,11.066,11.066,0,0,0,39.8,27.273a12.2,12.2,0,0,0,3.661-8.805Z" transform="translate(888.042 13461.797)"/>
    <ellipse id="Ellipse_248" data-name="Ellipse 248" class="cls-1" cx="11.382" cy="11.927" rx="11.382" ry="11.927" transform="translate(911.586 13419.637)"/>
    <path id="Path_659" data-name="Path 659" class="cls-1" d="M32.2,12.527A6.8,6.8,0,0,0,25.561,5.57a6.865,6.865,0,0,0-5.691,6.957,5.832,5.832,0,0,0,5.691,5.963A6.744,6.744,0,0,0,32.2,12.527Z" transform="translate(899.304 13370.335)"/>
    <ellipse id="Ellipse_249" data-name="Ellipse 249" class="cls-1" cx="1.897" cy="1.988" rx="1.897" ry="1.988" transform="translate(921.071 13331.18)"/>
    <path id="Path_665" data-name="Path 665" class="cls-1" d="M20.44,7.11Z" transform="translate(952.797 13521.855)"/>
    <path id="Path_666" data-name="Path 666" class="cls-1" d="M43.053,18.427A11.664,11.664,0,0,0,31.672,6.5,11.664,11.664,0,0,0,20.29,18.427,11.664,11.664,0,0,0,31.672,30.354,11.664,11.664,0,0,0,43.053,18.427Z" transform="translate(938.72 13461.838)"/>
    <path id="Path_667" data-name="Path 667" class="cls-1" d="M42.105,18.922a11.312,11.312,0,0,0-2.294-9.051A10.237,10.237,0,0,0,31.672,6,11.664,11.664,0,0,0,20.29,17.928a11.179,11.179,0,0,0,3.383,8.1,10.139,10.139,0,0,0,8,2.828A10.634,10.634,0,0,0,42.105,18.922Z" transform="translate(938.72 13412.642)"/>
    <path id="Path_668" data-name="Path 668" class="cls-1" d="M33.033,12.036a5.894,5.894,0,0,0-4.742-5.963,5.528,5.528,0,0,0-6.768,1.807,6.19,6.19,0,0,0,0,7.319,5.528,5.528,0,0,0,6.768,1.807,4.86,4.86,0,0,0,4.742-4.969Z" transform="translate(942.1 13370.827)"/>
    <path id="Path_669" data-name="Path 669" class="cls-1" d="M20.42,5.14Z" transform="translate(950.92 13328.027)"/>
    <ellipse id="Ellipse_256" data-name="Ellipse 256" class="cls-1" cx="1.897" cy="1.988" rx="1.897" ry="1.988" transform="translate(1014.97 13526.978)"/>
    <ellipse id="Ellipse_257" data-name="Ellipse 257" class="cls-1" cx="10.433" cy="10.933" rx="10.433" ry="10.933" transform="translate(1006.434 13469.332)"/>
    <path id="Path_679" data-name="Path 679" class="cls-1" d="M41.647,16.953A10.692,10.692,0,0,0,31.213,6.02,10.692,10.692,0,0,0,20.78,16.953,10.692,10.692,0,0,0,31.213,27.886,10.692,10.692,0,0,0,41.647,16.953Z" transform="translate(984.705 13414.61)"/>
    <path id="Path_680" data-name="Path 680" class="cls-1" d="M30.385,5.64H20.9a4.748,4.748,0,1,0,9.485,0Z" transform="translate(995.967 13377.223)"/>
    <path id="Path_681" data-name="Path 681" class="cls-1" d="M20.91,5.14Z" transform="translate(996.905 13328.027)"/>
    <ellipse id="Ellipse_262" data-name="Ellipse 262" class="cls-1" cx="1.897" cy="1.988" rx="1.897" ry="1.988" transform="translate(1061.445 13526.978)"/>
    <ellipse id="Ellipse_263" data-name="Ellipse 263" class="cls-1" cx="10.433" cy="10.933" rx="10.433" ry="10.933" transform="translate(1052.909 13469.332)"/>
    <path id="Path_688" data-name="Path 688" class="cls-1" d="M41.267,18.922a11.312,11.312,0,0,0-2.294-9.051A10.237,10.237,0,0,0,30.834,6a9.293,9.293,0,0,0-7.066,3.253,10.246,10.246,0,0,0-2.419,7.68,9.206,9.206,0,0,0,2.441,7.382,8.306,8.306,0,0,0,7.044,2.557,9.548,9.548,0,0,0,10.433-7.951Z" transform="translate(1032.508 13412.642)"/>
    <path id="Path_689" data-name="Path 689" class="cls-1" d="M26.132,5.64h0Z" transform="translate(1041.952 13377.223)"/>
    <path id="Path_690" data-name="Path 690" class="cls-1" d="M21.39,5.14Z" transform="translate(1041.952 13328.027)"/>
    <path id="Path_699" data-name="Path 699" class="cls-1" d="M21.9,7.11Z" transform="translate(1089.814 13521.855)"/>
    <ellipse id="Ellipse_266" data-name="Ellipse 266" class="cls-1" cx="10.433" cy="10.933" rx="10.433" ry="10.933" transform="translate(1100.332 13469.332)"/>
    <path id="Path_700" data-name="Path 700" class="cls-1" d="M41.708,16.018a9.72,9.72,0,0,0-9.485-9.939,9.213,9.213,0,0,0-7.329,2.535,10.161,10.161,0,0,0-3.1,7.4,10.634,10.634,0,0,0,10.433,9.939,10.693,10.693,0,0,0,9.485-9.939Z" transform="translate(1079.49 13415.545)"/>
    <path id="Path_701" data-name="Path 701" class="cls-1" d="M21.92,5.64Z" transform="translate(1091.691 13377.223)"/>
    <ellipse id="Ellipse_271" data-name="Ellipse 271" class="cls-1" cx="0.948" cy="0.994" rx="0.948" ry="0.994" transform="translate(1156.292 13527.972)"/>
    <ellipse id="Ellipse_272" data-name="Ellipse 272" class="cls-1" cx="9.485" cy="9.939" rx="9.485" ry="9.939" transform="translate(1147.756 13470.325)"/>
    <ellipse id="Ellipse_273" data-name="Ellipse 273" class="cls-1" cx="9.485" cy="9.939" rx="9.485" ry="9.939" transform="translate(1147.756 13421.625)"/>
    <ellipse id="Ellipse_274" data-name="Ellipse 274" class="cls-1" cx="2.845" cy="2.982" rx="2.845" ry="2.982" transform="translate(1154.395 13379.881)"/>
    <path id="Path_714" data-name="Path 714" class="cls-1" d="M22.88,7.11Z" transform="translate(1181.784 13521.855)"/>
    <path id="Path_715" data-name="Path 715" class="cls-1" d="M41.769,16.459A9.72,9.72,0,0,0,32.285,6.52,9.72,9.72,0,0,0,22.8,16.459,9.72,9.72,0,0,0,32.285,26.4,10.693,10.693,0,0,0,41.769,16.459Z" transform="translate(1174.276 13463.806)"/>
    <path id="Path_716" data-name="Path 716" class="cls-1" d="M39.892,14.985A8.748,8.748,0,0,0,31.356,6.04a8.748,8.748,0,0,0-8.536,8.945,8.748,8.748,0,0,0,8.536,8.945A8.748,8.748,0,0,0,39.892,14.985Z" transform="translate(1176.153 13416.578)"/>
    <path id="Path_717" data-name="Path 717" class="cls-1" d="M22.9,5.64Z" transform="translate(1183.661 13377.223)"/>
    <ellipse id="Ellipse_278" data-name="Ellipse 278" class="cls-1" cx="0.948" cy="0.994" rx="0.948" ry="0.994" transform="translate(1249.242 13527.972)"/>
    <path id="Path_726" data-name="Path 726" class="cls-1" d="M41.291,15.53a9.143,9.143,0,0,0-2.825-6.7,8.287,8.287,0,0,0-6.659-2.241A8.748,8.748,0,0,0,23.27,15.53a8.748,8.748,0,0,0,8.536,8.945,8.287,8.287,0,0,0,6.659-2.241A9.143,9.143,0,0,0,41.291,15.53Z" transform="translate(1218.384 13464.734)"/>
    <ellipse id="Ellipse_279" data-name="Ellipse 279" class="cls-1" cx="8.536" cy="8.945" rx="8.536" ry="8.945" transform="translate(1241.654 13422.618)"/>
    <path id="Path_727" data-name="Path 727" class="cls-1" d="M23.38,5.64Z" transform="translate(1228.708 13377.223)"/>
    <path id="Path_734" data-name="Path 734" class="cls-1" d="M24.8,7.11H23.85L24.8,8.1Z" transform="translate(1272.816 13521.855)"/>
    <path id="Path_735" data-name="Path 735" class="cls-1" d="M40.893,15.475A8.748,8.748,0,0,0,32.356,6.53a8.748,8.748,0,0,0-8.536,8.945,8.748,8.748,0,0,0,8.536,8.945A8.748,8.748,0,0,0,40.893,15.475Z" transform="translate(1270 13464.789)"/>
    <ellipse id="Ellipse_282" data-name="Ellipse 282" class="cls-1" cx="7.588" cy="7.951" rx="7.588" ry="7.951" transform="translate(1290.027 13423.612)"/>
    <ellipse id="Ellipse_283" data-name="Ellipse 283" class="cls-1" cx="1.897" cy="1.988" rx="1.897" ry="1.988" transform="translate(1295.717 13380.875)"/>
    <path id="Path_741" data-name="Path 741" class="cls-1" d="M26.237,7.11h-1.9l.949.994Z" transform="translate(1318.801 13521.855)"/>
    <ellipse id="Ellipse_287" data-name="Ellipse 287" class="cls-1" cx="8.536" cy="8.945" rx="8.536" ry="8.945" transform="translate(1335.553 13471.319)"/>
    <ellipse id="Ellipse_288" data-name="Ellipse 288" class="cls-1" cx="7.588" cy="7.951" rx="7.588" ry="7.951" transform="translate(1336.502 13423.612)"/>
    <ellipse id="Ellipse_289" data-name="Ellipse 289" class="cls-1" cx="0.948" cy="0.994" rx="0.948" ry="0.994" transform="translate(1343.141 13381.869)"/>
    <ellipse id="Ellipse_292" data-name="Ellipse 292" class="cls-1" transform="translate(1390.565 13528.966)"/>
    <path id="Path_748" data-name="Path 748" class="cls-1" d="M40.884,14.553a8.125,8.125,0,0,0-2.546-6.005A7.361,7.361,0,0,0,32.348,6.6a7.776,7.776,0,0,0-7.588,7.951A7.776,7.776,0,0,0,32.348,22.5a7.361,7.361,0,0,0,5.99-1.946,8.126,8.126,0,0,0,2.546-6.005Z" transform="translate(1358.217 13465.712)"/>
    <ellipse id="Ellipse_293" data-name="Ellipse 293" class="cls-1" cx="7.588" cy="7.951" rx="7.588" ry="7.951" transform="translate(1382.977 13423.612)"/>
    <path id="Path_749" data-name="Path 749" class="cls-1" d="M24.85,5.64Z" transform="translate(1366.663 13377.223)"/>
    <path id="Path_755" data-name="Path 755" class="cls-1" d="M26.278,7.11H25.33l.948.994Z" transform="translate(1411.71 13521.855)"/>
    <path id="Path_756" data-name="Path 756" class="cls-1" d="M41.374,14.491A8.749,8.749,0,0,0,33.787,6.54a8.689,8.689,0,0,0-8.536,7.951A8.125,8.125,0,0,0,27.8,20.5a7.36,7.36,0,0,0,5.99,1.946,7.776,7.776,0,0,0,7.588-7.951Z" transform="translate(1404.202 13465.773)"/>
    <path id="Path_757" data-name="Path 757" class="cls-1" d="M39.487,14A7.837,7.837,0,0,0,32.848,6.05,7.776,7.776,0,0,0,25.26,14a7.109,7.109,0,0,0,2.267,5.307,6.435,6.435,0,0,0,5.321,1.65A6.8,6.8,0,0,0,39.487,14Z" transform="translate(1405.14 13417.563)"/>
    <path id="Path_758" data-name="Path 758" class="cls-1" d="M26.278,5.63H25.33l.948.994Z" transform="translate(1411.71 13376.238)"/>
    <path id="Path_766" data-name="Path 766" class="cls-1" d="M25.83,7.11h0v0Z" transform="translate(1458.633 13521.855)"/>
    <path id="Path_767" data-name="Path 767" class="cls-1" d="M39.977,13.508A6.8,6.8,0,0,0,33.338,6.55a7.716,7.716,0,0,0-7.588,6.957,8.749,8.749,0,0,0,7.588,7.951A7.837,7.837,0,0,0,39.977,13.508Z" transform="translate(1451.126 13466.757)"/>
    <path id="Path_768" data-name="Path 768" class="cls-1" d="M39.039,13.017A6.8,6.8,0,0,0,32.4,6.06a6.8,6.8,0,0,0-6.639,6.957A6.8,6.8,0,0,0,32.4,19.975a6.8,6.8,0,0,0,6.639-6.957Z" transform="translate(1452.064 13418.546)"/>
    <path id="Path_769" data-name="Path 769" class="cls-1" d="M26.768,5.63H25.82l.948.994Z" transform="translate(1457.695 13376.238)"/>
    <path id="Path_777" data-name="Path 777" class="cls-1" d="M39.529,13.507a6.647,6.647,0,1,0-13.279,0,6.647,6.647,0,1,0,13.279,0Z" transform="translate(1498.049 13466.757)"/>
    <path id="Path_778" data-name="Path 778" class="cls-1" d="M38.59,13.017A6.8,6.8,0,0,0,31.951,6.06a6.865,6.865,0,0,0-5.691,6.957,5.832,5.832,0,0,0,5.691,5.963,6.744,6.744,0,0,0,6.64-5.963Z" transform="translate(1498.987 13418.546)"/>
    <path id="Path_779" data-name="Path 779" class="cls-1" d="M26.32,5.63h0v0Z" transform="translate(1504.618 13376.238)"/>
    <path id="Path_786" data-name="Path 786" class="cls-1" d="M39.08,12.524A6.744,6.744,0,0,0,32.441,6.56a5.832,5.832,0,0,0-5.691,5.964,6.865,6.865,0,0,0,5.69,6.957A6.8,6.8,0,0,0,39.08,12.524Z" transform="translate(1544.973 13467.74)"/>
    <path id="Path_787" data-name="Path 787" class="cls-1" d="M38.131,12.161a5.129,5.129,0,0,0-1.266-4.636A4.6,4.6,0,0,0,32.44,6.2a5.832,5.832,0,0,0-5.69,5.963,5.7,5.7,0,1,0,11.381,0Z" transform="translate(1544.973 13419.403)"/>
    <path id="Path_788" data-name="Path 788" class="cls-1" d="M27.759,5.63H26.81v.994Z" transform="translate(1550.604 13376.238)"/>
    <ellipse id="Ellipse_300" data-name="Ellipse 300" class="cls-1" cx="5.691" cy="5.963" rx="5.691" ry="5.963" transform="translate(1619.146 13474.301)"/>
    <ellipse id="Ellipse_301" data-name="Ellipse 301" class="cls-1" cx="5.691" cy="5.963" rx="5.691" ry="5.963" transform="translate(1619.146 13425.6)"/>
    <path id="Path_799" data-name="Path 799" class="cls-1" d="M39.122,12.523a5.7,5.7,0,1,0-11.382,0,5.7,5.7,0,1,0,11.382,0Z" transform="translate(1637.882 13467.741)"/>
    <path id="Path_800" data-name="Path 800" class="cls-1" d="M34.889,15.31A5.071,5.071,0,0,0,37.1,9.72a4.69,4.69,0,0,0-9.162,0,5.071,5.071,0,0,0,2.21,5.59Z" transform="translate(1641.166 13416.254)"/>
    <path id="Path_807" data-name="Path 807" class="cls-1" d="M38.674,7.411a5.466,5.466,0,0,0-5.69,0H28.241a5.9,5.9,0,0,0,4.742,5.963,5.832,5.832,0,0,0,5.691-5.963Z" transform="translate(1684.805 13472.854)"/>
    <ellipse id="Ellipse_306" data-name="Ellipse 306" class="cls-1" cx="4.742" cy="4.969" rx="4.742" ry="4.969" transform="translate(1713.045 13426.594)"/>
    <path id="Path_814" data-name="Path 814" class="cls-1" d="M38.224,7.279a4.555,4.555,0,0,0-4.742,0,4.86,4.86,0,0,0-4.742,4.969,4.86,4.86,0,0,0,4.742,4.97A5.191,5.191,0,0,0,40.6,14.733a5.683,5.683,0,0,0-2.371-7.454Z" transform="translate(1731.729 13472.985)"/>
    <ellipse id="Ellipse_308" data-name="Ellipse 308" class="cls-1" cx="4.742" cy="4.969" rx="4.742" ry="4.969" transform="translate(1760.469 13426.594)"/>
    <path id="Path_819" data-name="Path 819" class="cls-1" d="M34.022,6.62A4.86,4.86,0,0,0,29.28,11.59a4.747,4.747,0,1,0,9.485,0,4.86,4.86,0,0,0-4.742-4.97Z" transform="translate(1782.406 13473.645)"/>
    <path id="Path_820" data-name="Path 820" class="cls-1" d="M29.32,6.13Z" transform="translate(1786.16 13425.434)"/>
    <path id="Path_827" data-name="Path 827" class="cls-1" d="M37.318,6.62h0Z" transform="translate(1824.638 13473.645)"/>
    <ellipse id="Ellipse_313" data-name="Ellipse 313" class="cls-1" cx="3.794" cy="3.976" rx="3.794" ry="3.976" transform="translate(1854.368 13427.588)"/>
  </g>
</svg>
